<?xml version="1.0" encoding="UTF-8"?>
<!-- Screenshot 03 — Habits with streak, Matrix theme. Caption: "Streaks that forgive." -->
<svg xmlns="http://www.w3.org/2000/svg" viewBox="0 0 1080 1920" width="1080" height="1920"
     font-family="'Share Tech Mono', 'VT323', 'Space Grotesk', monospace">
  <defs>
    <linearGradient id="captionFade03" x1="0" y1="0" x2="0" y2="1">
      <stop offset="0%" stop-color="#010D03" stop-opacity="0"/>
      <stop offset="40%" stop-color="#010D03" stop-opacity="0.92"/>
      <stop offset="100%" stop-color="#010D03" stop-opacity="1"/>
    </linearGradient>
  </defs>

  <rect width="1080" height="1920" fill="#010D03"/>

  <!-- Status bar -->
  <g fill="#B0FFB8" font-size="24" font-weight="600">
    <text x="48" y="50">9:41</text>
    <rect x="1024" y="32" width="28" height="20" rx="4" fill="none" stroke="#B0FFB8" stroke-width="2"/>
    <rect x="1027" y="35" width="18" height="14" fill="#00FF41"/>
  </g>

  <!-- App bar -->
  <text x="48" y="160" font-size="72" font-weight="700" fill="#B0FFB8">Meditation</text>
  <text x="48" y="206" font-size="26" fill="#70CC80">Daily · forgiveness on · grace 1 day</text>

  <!-- Streak hero -->
  <g transform="translate(48, 260)">
    <rect x="0" y="0" width="984" height="220" rx="24" fill="#010F04" stroke="#00FF41" stroke-opacity="0.3" stroke-width="2"/>
    <g transform="translate(48, 60)">
      <text x="0" y="0" font-size="30" fill="#70CC80">Current streak</text>
      <text x="0" y="76" font-size="120" font-weight="700" fill="#00FF41">47</text>
      <text x="264" y="76" font-size="32" fill="#70CC80">days</text>
    </g>
    <!-- Small trend sparkline -->
    <g transform="translate(620, 60)">
      <text x="0" y="0" font-size="20" fill="#70CC80">Last 12 weeks</text>
      <polyline points="0,90 40,80 80,70 120,74 160,64 200,60 240,56 280,50 320,44 360,42" fill="none" stroke="#AAFF00" stroke-width="3"/>
      <circle cx="360" cy="42" r="6" fill="#AAFF00"/>
      <text x="0" y="130" font-size="18" fill="#70CC80">Personal best · 52 days</text>
    </g>
  </g>

  <!-- Contribution grid header -->
  <text x="48" y="536" font-size="30" font-weight="700" fill="#B0FFB8">Activity · last 12 weeks</text>

  <!-- Contribution grid: 12 weeks × 7 days. Cell 40x40, gap 8. Origin (48, 564). -->
  <g transform="translate(48, 564)">
    <!-- Day labels -->
    <g font-size="16" fill="#70CC80">
      <text x="-12" y="28" text-anchor="end">Mon</text>
      <text x="-12" y="124" text-anchor="end">Wed</text>
      <text x="-12" y="220" text-anchor="end">Fri</text>
    </g>
    <!-- Generate cells programmatically — here hard-coded 12×7 with varied intensity -->
    <g id="cells">
      <!-- Row for each day; column for each week -->
      <!-- Levels: 0=#021206 1=#0A2A14 2=#1A5E25 3=#00B020 4=#00FF41 -->
      <!-- Week 1 -->
      <rect x="0" y="0" width="40" height="40" rx="4" fill="#1A5E25"/>
      <rect x="0" y="48" width="40" height="40" rx="4" fill="#00B020"/>
      <rect x="0" y="96" width="40" height="40" rx="4" fill="#00FF41"/>
      <rect x="0" y="144" width="40" height="40" rx="4" fill="#00B020"/>
      <rect x="0" y="192" width="40" height="40" rx="4" fill="#021206"/>
      <rect x="0" y="240" width="40" height="40" rx="4" fill="#1A5E25"/>
      <rect x="0" y="288" width="40" height="40" rx="4" fill="#00B020"/>
      <!-- Weeks 2-12: batch -->
      <g>
        <!-- Week 2 -->
        <g transform="translate(48, 0)">
          <rect y="0" width="40" height="40" rx="4" fill="#00FF41"/>
          <rect y="48" width="40" height="40" rx="4" fill="#00FF41"/>
          <rect y="96" width="40" height="40" rx="4" fill="#00B020"/>
          <rect y="144" width="40" height="40" rx="4" fill="#00FF41"/>
          <rect y="192" width="40" height="40" rx="4" fill="#1A5E25"/>
          <rect y="240" width="40" height="40" rx="4" fill="#00B020"/>
          <rect y="288" width="40" height="40" rx="4" fill="#00FF41"/>
        </g>
        <g transform="translate(96, 0)">
          <rect y="0" width="40" height="40" rx="4" fill="#00B020"/>
          <rect y="48" width="40" height="40" rx="4" fill="#00FF41"/>
          <rect y="96" width="40" height="40" rx="4" fill="#00FF41"/>
          <rect y="144" width="40" height="40" rx="4" fill="#00FF41"/>
          <rect y="192" width="40" height="40" rx="4" fill="#00B020"/>
          <rect y="240" width="40" height="40" rx="4" fill="#0A2A14"/>
          <rect y="288" width="40" height="40" rx="4" fill="#00FF41"/>
        </g>
        <g transform="translate(144, 0)">
          <rect y="0" width="40" height="40" rx="4" fill="#1A5E25"/>
          <rect y="48" width="40" height="40" rx="4" fill="#00FF41"/>
          <rect y="96" width="40" height="40" rx="4" fill="#00FF41"/>
          <rect y="144" width="40" height="40" rx="4" fill="#00B020"/>
          <rect y="192" width="40" height="40" rx="4" fill="#00FF41"/>
          <rect y="240" width="40" height="40" rx="4" fill="#00FF41"/>
          <rect y="288" width="40" height="40" rx="4" fill="#021206"/>
        </g>
        <g transform="translate(192, 0)">
          <rect y="0" width="40" height="40" rx="4" fill="#00FF41"/>
          <rect y="48" width="40" height="40" rx="4" fill="#00B020"/>
          <rect y="96" width="40" height="40" rx="4" fill="#00FF41"/>
          <rect y="144" width="40" height="40" rx="4" fill="#00FF41"/>
          <rect y="192" width="40" height="40" rx="4" fill="#00FF41"/>
          <rect y="240" width="40" height="40" rx="4" fill="#0A2A14"/>
          <rect y="288" width="40" height="40" rx="4" fill="#00B020"/>
        </g>
        <g transform="translate(240, 0)">
          <rect y="0" width="40" height="40" rx="4" fill="#00FF41"/>
          <rect y="48" width="40" height="40" rx="4" fill="#00FF41"/>
          <rect y="96" width="40" height="40" rx="4" fill="#00FF41"/>
          <rect y="144" width="40" height="40" rx="4" fill="#00FF41"/>
          <rect y="192" width="40" height="40" rx="4" fill="#00B020"/>
          <rect y="240" width="40" height="40" rx="4" fill="#00FF41"/>
          <rect y="288" width="40" height="40" rx="4" fill="#00FF41"/>
        </g>
        <g transform="translate(288, 0)">
          <rect y="0" width="40" height="40" rx="4" fill="#00FF41"/>
          <rect y="48" width="40" height="40" rx="4" fill="#00FF41"/>
          <rect y="96" width="40" height="40" rx="4" fill="#00B020"/>
          <rect y="144" width="40" height="40" rx="4" fill="#00FF41"/>
          <rect y="192" width="40" height="40" rx="4" fill="#00FF41"/>
          <rect y="240" width="40" height="40" rx="4" fill="#00FF41"/>
          <rect y="288" width="40" height="40" rx="4" fill="#00FF41"/>
        </g>
        <g transform="translate(336, 0)">
          <rect y="0" width="40" height="40" rx="4" fill="#00FF41"/>
          <rect y="48" width="40" height="40" rx="4" fill="#00FF41"/>
          <rect y="96" width="40" height="40" rx="4" fill="#00FF41"/>
          <rect y="144" width="40" height="40" rx="4" fill="#00FF41"/>
          <rect y="192" width="40" height="40" rx="4" fill="#1A5E25"/>
          <rect y="240" width="40" height="40" rx="4" fill="#00FF41"/>
          <rect y="288" width="40" height="40" rx="4" fill="#00FF41"/>
        </g>
        <g transform="translate(384, 0)">
          <rect y="0" width="40" height="40" rx="4" fill="#00FF41"/>
          <rect y="48" width="40" height="40" rx="4" fill="#00FF41"/>
          <rect y="96" width="40" height="40" rx="4" fill="#00FF41"/>
          <rect y="144" width="40" height="40" rx="4" fill="#00B020"/>
          <rect y="192" width="40" height="40" rx="4" fill="#00FF41"/>
          <rect y="240" width="40" height="40" rx="4" fill="#00FF41"/>
          <rect y="288" width="40" height="40" rx="4" fill="#00FF41"/>
        </g>
        <g transform="translate(432, 0)">
          <rect y="0" width="40" height="40" rx="4" fill="#00FF41"/>
          <rect y="48" width="40" height="40" rx="4" fill="#00FF41"/>
          <rect y="96" width="40" height="40" rx="4" fill="#00FF41"/>
          <rect y="144" width="40" height="40" rx="4" fill="#00FF41"/>
          <rect y="192" width="40" height="40" rx="4" fill="#00FF41"/>
          <rect y="240" width="40" height="40" rx="4" fill="#1A5E25"/>
          <rect y="288" width="40" height="40" rx="4" fill="#00FF41"/>
        </g>
        <g transform="translate(480, 0)">
          <rect y="0" width="40" height="40" rx="4" fill="#00FF41"/>
          <rect y="48" width="40" height="40" rx="4" fill="#00FF41"/>
          <rect y="96" width="40" height="40" rx="4" fill="#00FF41"/>
          <rect y="144" width="40" height="40" rx="4" fill="#00FF41"/>
          <rect y="192" width="40" height="40" rx="4" fill="#00FF41"/>
          <rect y="240" width="40" height="40" rx="4" fill="#00FF41"/>
          <rect y="288" width="40" height="40" rx="4" fill="#00FF41"/>
        </g>
        <g transform="translate(528, 0)">
          <rect y="0" width="40" height="40" rx="4" fill="#00FF41"/>
          <rect y="48" width="40" height="40" rx="4" fill="#00FF41"/>
          <rect y="96" width="40" height="40" rx="4" fill="#00FF41"/>
          <rect y="144" width="40" height="40" rx="4" fill="#00FF41"/>
          <rect y="192" width="40" height="40" rx="4" fill="#00FF41"/>
          <rect y="240" width="40" height="40" rx="4" fill="#00FF41"/>
          <rect y="288" width="40" height="40" rx="4" fill="#AAFF00"/>
        </g>
      </g>
    </g>
  </g>

  <!-- Grace-day callout -->
  <g transform="translate(48, 1000)">
    <rect x="0" y="0" width="984" height="128" rx="20" fill="#0A1400" stroke="#AAFF00" stroke-opacity="0.4" stroke-width="2"/>
    <text x="32" y="48" font-size="24" font-weight="700" fill="#AAFF00">↻ Forgiveness mode</text>
    <text x="32" y="84" font-size="22" fill="#B0FFB8" font-family="'Space Grotesk', sans-serif">Missed April 18 — streak preserved (1 grace day used this week).</text>
    <text x="32" y="110" font-size="18" fill="#70CC80" font-family="'Space Grotesk', sans-serif">Miss one more and the counter pauses, not resets.</text>
  </g>

  <!-- Complete-today button -->
  <g transform="translate(48, 1160)">
    <rect x="0" y="0" width="984" height="112" rx="20" fill="#00FF41"/>
    <text x="492" y="72" font-size="36" font-weight="700" fill="#010D03" text-anchor="middle" font-family="'Space Grotesk', sans-serif">✓ Mark today done</text>
  </g>

  <!-- Bottom nav indicator -->
  <g transform="translate(0, 1504)">
    <rect x="0" y="0" width="1080" height="128" fill="#010F04"/>
    <rect x="0" y="0" width="1080" height="2" fill="#00FF41" opacity="0.25"/>
    <g font-size="18" text-anchor="middle" font-family="'Space Grotesk', sans-serif">
      <text x="108" y="94" fill="#1A5E25">Today</text>
      <text x="324" y="94" fill="#1A5E25">Tasks</text>
      <text x="540" y="94" fill="#1A5E25">Projects</text>
      <circle cx="756" cy="52" r="10" fill="#00FF41"/>
      <text x="756" y="94" fill="#00FF41">Habits</text>
      <text x="972" y="94" fill="#1A5E25">Settings</text>
    </g>
  </g>

  <!-- Caption -->
  <rect x="0" y="1632" width="1080" height="288" fill="url(#captionFade03)"/>
  <text x="540" y="1768" font-size="68" font-weight="700" fill="#B0FFB8" text-anchor="middle" font-family="'Share Tech Mono', monospace">Streaks that forgive.</text>
  <text x="540" y="1830" font-size="30" fill="#00FF41" text-anchor="middle" font-family="'Space Grotesk', sans-serif">Miss a day without losing your run.</text>
</svg>
