<?xml version="1.0" encoding="UTF-8"?>
<!-- Screenshot 06 — AI Time Blocking, Synthwave theme. Caption: "Plan your week in seconds." -->
<svg xmlns="http://www.w3.org/2000/svg" viewBox="0 0 1080 1920" width="1080" height="1920"
     font-family="'Rajdhani', 'Space Grotesk', sans-serif">
  <defs>
    <linearGradient id="captionFade06" x1="0" y1="0" x2="0" y2="1">
      <stop offset="0%" stop-color="#0D0717" stop-opacity="0"/>
      <stop offset="40%" stop-color="#0D0717" stop-opacity="0.92"/>
      <stop offset="100%" stop-color="#0D0717" stop-opacity="1"/>
    </linearGradient>
  </defs>

  <rect width="1080" height="1920" fill="#0D0717"/>

  <g fill="#F0D0FF" font-size="24" font-weight="600">
    <text x="48" y="50">9:41</text>
    <rect x="1024" y="32" width="28" height="20" rx="4" fill="none" stroke="#F0D0FF" stroke-width="2"/>
    <rect x="1027" y="35" width="18" height="14" fill="#FF2D87"/>
  </g>

  <text x="48" y="160" font-size="66" font-weight="700" fill="#F0D0FF">AI time blocks</text>
  <text x="48" y="204" font-size="26" fill="#B080D0">Monday, April 27 · proposed by AI · 5 unscheduled tasks</text>

  <!-- Timeline: hours 8am-6pm -->
  <g transform="translate(48, 252)">
    <!-- Hour grid -->
    <g font-size="20" fill="#5E3A7A">
      <text x="0" y="24">8</text><line x1="40" y1="20" x2="984" y2="20" stroke="#1A0F2E" stroke-width="1"/>
      <text x="0" y="124">9</text><line x1="40" y1="120" x2="984" y2="120" stroke="#1A0F2E" stroke-width="1"/>
      <text x="0" y="224">10</text><line x1="40" y1="220" x2="984" y2="220" stroke="#1A0F2E" stroke-width="1"/>
      <text x="0" y="324">11</text><line x1="40" y1="320" x2="984" y2="320" stroke="#1A0F2E" stroke-width="1"/>
      <text x="0" y="424">12</text><line x1="40" y1="420" x2="984" y2="420" stroke="#1A0F2E" stroke-width="1"/>
      <text x="0" y="524">1</text><line x1="40" y1="520" x2="984" y2="520" stroke="#1A0F2E" stroke-width="1"/>
      <text x="0" y="624">2</text><line x1="40" y1="620" x2="984" y2="620" stroke="#1A0F2E" stroke-width="1"/>
      <text x="0" y="724">3</text><line x1="40" y1="720" x2="984" y2="720" stroke="#1A0F2E" stroke-width="1"/>
      <text x="0" y="824">4</text><line x1="40" y1="820" x2="984" y2="820" stroke="#1A0F2E" stroke-width="1"/>
      <text x="0" y="924">5</text><line x1="40" y1="920" x2="984" y2="920" stroke="#1A0F2E" stroke-width="1"/>
    </g>

    <!-- Existing calendar events -->
    <g transform="translate(56, 200)">
      <rect x="0" y="0" width="920" height="100" rx="12" fill="#130820" stroke="#5E3A7A" stroke-width="2"/>
      <text x="20" y="32" font-size="20" fill="#B080D0">Team standup</text>
      <text x="20" y="60" font-size="16" fill="#5E3A7A">Calendar · 10 – 10:30</text>
    </g>

    <!-- AI-suggested focus block 1 -->
    <g transform="translate(56, 20)">
      <rect x="0" y="0" width="920" height="180" rx="12" fill="#6E3FFF" opacity="0.88"/>
      <rect x="0" y="0" width="8" height="180" fill="#FF2D87"/>
      <text x="28" y="40" font-size="26" font-weight="700" fill="#F0D0FF">Deep work · Q2 memo</text>
      <text x="28" y="70" font-size="20" fill="#F0D0FF" opacity="0.8">8:00 – 9:30 · high energy · 1 Pomodoro quad</text>
      <g transform="translate(28, 96)">
        <rect x="0" y="0" width="76" height="28" rx="14" fill="#FF2D87"/>
        <text x="38" y="20" font-size="14" text-anchor="middle" font-weight="700" fill="#0D0717">AI</text>
        <text x="92" y="20" font-size="18" fill="#F0D0FF" opacity="0.85">Suggested from your Eisenhower Q2</text>
      </g>
      <g transform="translate(820, 140)">
        <rect x="0" y="0" width="80" height="28" rx="14" fill="#FF2D87"/>
        <text x="40" y="20" font-size="16" text-anchor="middle" font-weight="700" fill="#0D0717">accept</text>
      </g>
    </g>

    <!-- AI-suggested focus block 2 (afternoon) -->
    <g transform="translate(56, 500)">
      <rect x="0" y="0" width="920" height="220" rx="12" fill="#6E3FFF" opacity="0.88"/>
      <rect x="0" y="0" width="8" height="220" fill="#FF2D87"/>
      <text x="28" y="40" font-size="26" font-weight="700" fill="#F0D0FF">Client proposal draft</text>
      <text x="28" y="70" font-size="20" fill="#F0D0FF" opacity="0.8">1:00 – 3:15 · steady energy · 2 Pomodoros + review</text>
      <g transform="translate(28, 96)">
        <rect x="0" y="0" width="76" height="28" rx="14" fill="#FF2D87"/>
        <text x="38" y="20" font-size="14" text-anchor="middle" font-weight="700" fill="#0D0717">AI</text>
        <text x="92" y="20" font-size="18" fill="#F0D0FF" opacity="0.85">Paired with afternoon peak from your energy log</text>
      </g>
      <g transform="translate(28, 152)">
        <rect x="0" y="0" width="220" height="28" rx="14" fill="#1A0F2E"/>
        <text x="110" y="20" font-size="16" text-anchor="middle" fill="#FF2D87" font-weight="600">◦ linked to project: Acme</text>
      </g>
    </g>

    <!-- Walk block (short recovery) -->
    <g transform="translate(56, 740)">
      <rect x="0" y="0" width="920" height="60" rx="10" fill="#00EE88" opacity="0.75"/>
      <text x="20" y="38" font-size="20" font-weight="700" fill="#0D0717">Walk · 20 min</text>
      <text x="320" y="38" font-size="18" fill="#0D0717" opacity="0.85">AI scheduled recovery after deep work</text>
    </g>

    <!-- Meeting block -->
    <g transform="translate(56, 820)">
      <rect x="0" y="0" width="920" height="60" rx="10" fill="#130820" stroke="#5E3A7A" stroke-width="2"/>
      <text x="20" y="38" font-size="20" fill="#B080D0">Design sync</text>
      <text x="260" y="38" font-size="18" fill="#5E3A7A">Calendar · 4:00 – 4:30</text>
    </g>
  </g>

  <!-- Action bar -->
  <g transform="translate(48, 1420)">
    <rect x="0" y="0" width="486" height="84" rx="20" fill="#FF2D87"/>
    <text x="243" y="54" font-size="28" font-weight="700" fill="#0D0717" text-anchor="middle">Accept plan</text>
    <rect x="498" y="0" width="486" height="84" rx="20" fill="none" stroke="#6E3FFF" stroke-width="2"/>
    <text x="741" y="54" font-size="26" font-weight="600" fill="#B080D0" text-anchor="middle">Regenerate</text>
  </g>

  <!-- Bottom nav -->
  <g transform="translate(0, 1504)">
    <rect x="0" y="0" width="1080" height="128" fill="#130820"/>
    <rect x="0" y="0" width="1080" height="2" fill="#6E3FFF" opacity="0.3"/>
    <g font-size="18" text-anchor="middle" font-family="'Space Grotesk', sans-serif">
      <text x="108" y="94" fill="#5E3A7A">Today</text>
      <text x="324" y="94" fill="#5E3A7A">Tasks</text>
      <circle cx="540" cy="52" r="10" fill="#FF2D87"/>
      <text x="540" y="94" fill="#FF2D87">Planner</text>
      <text x="756" y="94" fill="#5E3A7A">Habits</text>
      <text x="972" y="94" fill="#5E3A7A">Settings</text>
    </g>
  </g>

  <rect x="0" y="1632" width="1080" height="288" fill="url(#captionFade06)"/>
  <text x="540" y="1768" font-size="68" font-weight="700" fill="#F0D0FF" text-anchor="middle">Plan your week in seconds.</text>
  <text x="540" y="1830" font-size="30" fill="#FF2D87" text-anchor="middle" font-family="'Space Grotesk', sans-serif">AI time blocks matched to your energy and calendar.</text>
</svg>
